<svg xmlns="http://www.w3.org/2000/svg" viewBox="0 0 820 820">
  <!-- ZoneStay logo - single-color mark on a solid white square (favicon / dark-UI safe). -->
  <rect width="820" height="820" fill="#FFFFFF"/>
  <g fill="#3E4265" transform="translate(42.5 145.25)">
    <path d="M 28.1 227.5 L 363.3 19.7 A 8 8 0 0 1 371.7 19.7 L 706.9 227.5 A 23.5 23.5 0 0 1 682.1 267.5 L 370.7 74.4 A 6 6 0 0 0 364.3 74.4 L 112.9 230.2 A 3 3 0 0 0 111.5 232.8 L 111.5 472.5 A 4 4 0 0 0 115.5 476.5 L 134.4 476.5 A 4 4 0 0 1 136.6 483.8 L 94.7 511.7 A 5 5 0 0 1 91.9 512.5 L 83.5 512.5 A 6 6 0 0 1 77.5 506.5 L 77.5 257.6 A 3 3 0 0 0 72.9 255 L 52.9 267.5 A 23.5 23.5 0 0 1 28.1 227.5 Z"/>
    <path d="M 192 229.5 L 565.9 229.5 A 17 17 0 0 1 575.3 260.7 L 261.6 469.2 A 4 4 0 0 0 263.8 476.5 L 605.5 476.5 A 5 5 0 0 0 610.5 471.5 L 610.5 319.5 A 4.5 4.5 0 0 1 615 315 L 641 315 A 4.5 4.5 0 0 1 645.5 319.5 L 645.5 500.5 A 12 12 0 0 1 633.5 512.5 L 147.9 512.5 A 5 5 0 0 1 145.2 503.3 L 492 272.8 A 4 4 0 0 0 489.7 265.5 L 192 265.5 A 18 18 0 0 1 192 229.5 Z"/>
  </g>
</svg>
